<mxfile host="app.diagrams.net" modified="2024-05-05T13:00:11.805Z" agent="Mozilla/5.0 (Windows NT 10.0; Win64; x64) AppleWebKit/537.36 (KHTML, like Gecko) Chrome/124.0.0.0 Safari/537.36" version="24.3.1" etag="TJyFYD9kLug1F0oy5LLL" type="github">
  <diagram name="Halaman-1" id="vubttFo6cr6v0PXvBPfM">
    <mxGraphModel>
      <root>
        <mxCell id="0" />
        <mxCell id="1" parent="0" />
      </root>
    </mxGraphModel>
  </diagram>
</mxfile>
